# xmcd CD database file
#
# Track frame offsets:
#	150
#	11134
#	28007
#	40630
#	63100
#	79702
#	96602
#	111032
#	142190
#	155632
#	169155
#	202275
#
# Disc length: 2882 seconds
#
# Revision: 0
# Processed by: cddbd v1.5PL3 Copyright (c) Steve Scherf et al.
# Submitted via: CDex 1.51
#
DISCID=a70b400c
DTITLE=Peter Moon - KANIKAPILA!
DYEAR=1997
DGENRE=Pop
TTITLE0=Love Is Rose
TTITLE1=Kanaka Wai Wai
TTITLE2=Swap Meet
TTITLE3=Colors Of The Wind
TTITLE4=Honolulu I'm Coming Back Again
TTITLE5=Ku'uipo I Ka He'e Pueone
TTITLE6=Soy
TTITLE7=Will You Still Love Me Tomorrow
TTITLE8=Mwditation
TTITLE9=Kou Kino Mambo
TTITLE10=Beautiful Maria Of My Soul
TTITLE11=unknow
EXTD=YEAR: 1997
EXTT0=
EXTT1=
EXTT2=
EXTT3=
EXTT4=
EXTT5=
EXTT6=
EXTT7=
EXTT8=
EXTT9=
EXTT10=
EXTT11=
PLAYORDER=
